<svg width="730" height="34" viewBox="0 0 730 34" fill="none" xmlns="http://www.w3.org/2000/svg">
<g clip-path="url(#clip0_0_1)">
<path fill-rule="evenodd" clip-rule="evenodd" d="M17.8115 3.21949C18.1481 3.11139 18.5141 3.14707 18.8238 3.3182C19.5012 3.69259 20.0166 4.34247 20.4 4.99274C20.7989 5.6692 21.1333 6.48001 21.3934 7.34137C21.9115 9.05681 22.1802 11.1242 21.9905 13.0113C21.9189 13.7237 21.2869 14.2427 20.5789 14.1707C19.8708 14.0986 19.3549 13.4628 19.4266 12.7505C19.5768 11.2554 19.3624 9.53475 18.9277 8.09513C18.8076 7.69774 18.6743 7.3335 18.5336 7.01029C18.1129 8.09177 17.6801 9.28346 17.4871 9.92978C17.2823 10.6155 16.5638 11.0043 15.8823 10.7982C15.2007 10.5922 14.8143 9.86933 15.0191 9.18366C15.3945 7.92637 16.5278 4.96267 17.0435 3.89001C17.1973 3.57001 17.475 3.32759 17.8115 3.21949Z" fill="#969FA4"/>
<path fill-rule="evenodd" clip-rule="evenodd" d="M13.743 9.14856C13.9994 8.32905 14.8675 7.87376 15.6821 8.13167C16.4863 8.3863 17.2718 8.72743 18.0357 9.12321L18.0402 9.12562C21.6088 10.9897 24.1965 14.1361 24.9025 17.382C24.9131 17.4226 24.929 17.4572 24.9453 17.4824C24.9608 17.5065 24.9719 17.5154 24.9721 17.5155L24.9814 17.5221L27.6136 19.4249L27.6174 19.4277C28.5542 20.1093 28.7954 21.225 28.7499 22.0293C28.7046 22.8314 28.3379 23.9261 27.3046 24.4867L27.2976 24.4905C25.9504 25.2124 24.3235 25.4362 21.8402 24.9933C21.8289 24.9913 21.8176 24.9892 21.8064 24.987C21.7482 24.9752 21.687 24.9657 21.5814 24.9494L21.5734 24.9481C21.4909 24.9354 21.3709 24.9167 21.2437 24.8901C19.3352 24.5857 18.065 24.6196 17.28 24.8322C16.5798 25.0218 16.3993 25.3006 16.3152 25.5752C15.7289 27.5241 16.2651 28.6689 16.993 30.2232C17.109 30.4709 17.2299 30.7291 17.3519 31.0026C17.7016 31.7864 17.3535 32.707 16.5745 33.0588C15.7954 33.4106 14.8803 33.0604 14.5306 32.2767C14.4421 32.078 14.341 31.8678 14.234 31.6451C13.4712 30.0578 12.4031 27.8353 13.3564 24.6703L13.3578 24.6657C13.8165 23.1596 14.973 22.2349 16.4763 21.8278C17.8912 21.4447 19.6834 21.4877 21.7719 21.8243C21.8025 21.8293 21.8329 21.835 21.8631 21.8418C21.8967 21.8494 21.9442 21.8576 22.0465 21.8734C22.054 21.8746 22.0619 21.8759 22.0702 21.8771C22.153 21.8899 22.2718 21.9082 22.3946 21.9324C24.2161 22.2554 25.0992 22.084 25.6523 21.8383L23.181 20.0518C22.5001 19.5652 22.0682 18.8393 21.8917 18.0928C21.8892 18.0824 21.8869 18.0719 21.8846 18.0615C21.4183 15.8909 19.5498 13.4206 16.6175 11.888C15.9757 11.5557 15.3554 11.2899 14.7538 11.0995C13.9392 10.8415 13.4867 9.96809 13.743 9.14856Z" fill="#969FA4"/>
<path fill-rule="evenodd" clip-rule="evenodd" d="M10.0909 5.75535C10.057 6.2168 10.0212 6.66704 9.98712 7.08771C9.97488 7.23844 9.96304 7.38386 9.9516 7.52364C9.86952 8.53006 9.81136 9.24347 9.81136 9.53451C9.81136 10.1174 9.51376 10.787 8.8368 11.128C8.07952 11.5094 7.03395 12.0967 6.10057 12.7916C6.08781 12.8011 6.0751 12.8106 6.06245 12.82C6.32485 12.8915 6.53111 12.9665 6.66582 13.02C7.34806 13.278 7.65759 13.8958 7.70276 14.3963C7.74426 14.8561 7.59222 15.3491 7.22931 15.7147C7.18101 15.7634 7.12955 15.8088 7.07528 15.8506C6.80414 16.0594 5.85283 16.8381 5.00755 18.0582C4.57144 18.6876 4.17833 19.4121 3.91405 20.221C5.15943 20.0113 6.44671 21.228 5.86119 22.6475C5.37473 23.9277 4.08827 27.7704 4.38185 31.7261C4.44544 32.5829 3.80664 33.3293 2.95506 33.3933C2.10347 33.4573 1.36158 32.8146 1.29799 31.9578C1.09224 29.1854 1.53694 26.5147 2.04308 24.5115C1.84708 24.4895 1.65466 24.4346 1.47438 24.3474C0.942776 24.0903 0.513097 23.5387 0.490867 22.8309C0.35396 20.0937 1.37716 17.8571 2.47066 16.2789C2.5432 16.1742 2.6163 16.0721 2.68967 15.9724C2.32857 15.9035 2.00514 15.7229 1.76595 15.4819C1.29689 15.0094 1.08955 14.2503 1.40158 13.5302C1.97365 12.1952 3.18477 11.0919 4.26105 10.2906C5.107 9.6608 6.00302 9.12153 6.75692 8.71061C6.78496 8.29852 6.8255 7.80426 6.86801 7.28596C6.88022 7.13704 6.8926 6.98614 6.90489 6.83464C7.00026 5.65906 7.1025 4.32523 7.1415 3.17434C7.15207 2.78896 7.30006 2.40432 7.58582 2.10537C7.8451 1.83412 8.132 1.72279 8.28744 1.67579C8.45128 1.62628 8.58976 1.61251 8.6616 1.60734C8.73312 1.60219 8.7948 1.60239 8.80624 1.60243L8.80768 1.60243C8.97808 1.60243 9.14728 1.63076 9.30848 1.68628C10.8398 2.21371 12.1449 3.31768 13.2689 4.54166C14.4028 5.77648 15.4709 7.26798 16.4839 8.72299C16.9738 9.42666 16.804 10.3968 16.1046 10.8897C15.4051 11.3826 14.441 11.2117 13.951 10.508C12.9346 9.04806 11.9733 7.7157 10.9974 6.65299C10.6855 6.31333 10.3837 6.01434 10.0909 5.75535ZM5.53103 15.9141C5.56169 15.9267 5.59322 15.9384 5.62561 15.9494C5.59686 15.9397 5.56838 15.9292 5.54025 15.9178C5.53723 15.9166 5.53416 15.9154 5.53103 15.9141Z" fill="#969FA4"/>
<path d="M44.5748 13.0365C44.0322 13.6033 43.1281 13.6236 42.5454 13.1174C42.2238 12.8138 41.7818 12.6114 41.3196 12.6114C40.335 12.6114 39.5314 13.4413 39.5314 14.4737V17.4292H41.7818C42.5654 17.4292 43.2285 18.0769 43.2285 18.8664C43.2285 19.6761 42.5654 20.3238 41.7818 20.3238H39.5314V26.3764C39.5314 27.1659 38.8682 27.8339 38.0645 27.8339C37.2809 27.8339 36.6178 27.1659 36.6178 26.3764V26.336C36.6178 24.4331 36.6178 22.5303 36.6178 20.6477V14.4535C36.6178 11.8422 38.7477 9.71667 41.3196 9.71667C42.5051 9.71667 43.6304 10.162 44.5145 10.9717C45.0771 11.5385 45.0972 12.4495 44.5748 13.0365Z" fill="#969FA4"/>
<path d="M49.8588 27.854C46.6037 27.854 43.9313 25.182 43.9313 21.8825C43.9313 18.6031 46.6037 15.9108 49.8588 15.9108C53.1139 15.9108 55.7864 18.6031 55.8065 21.9027C55.7864 25.2023 53.1139 27.854 49.8588 27.854ZM49.8588 18.8461C48.191 18.8461 46.8247 20.2023 46.8247 21.9027C46.8247 23.5828 48.171 24.9593 49.8588 24.9593C51.5266 24.9593 52.893 23.603 52.893 21.9027C52.8728 20.2023 51.5266 18.8461 49.8588 18.8461Z" fill="#969FA4"/>
<path d="M62.8998 27.8339C61.3325 27.8339 59.9058 27.2469 58.7806 26.174C57.6554 25.0607 57.0124 23.583 56.9521 21.9838C56.932 20.4049 57.4946 18.8867 58.6198 17.7531C59.7049 16.6195 61.1717 15.9717 62.7591 15.911C64.3465 15.8907 65.8334 16.4778 66.9586 17.5911C67.5212 18.1174 67.5414 19.0486 66.9988 19.5952C66.4562 20.162 65.5521 20.1822 64.9894 19.6357C64.4067 19.0689 63.6231 18.745 62.7993 18.745C61.9754 18.745 61.2119 19.1094 60.6292 19.6964C60.0866 20.2834 59.745 21.0729 59.7853 21.9029C59.7853 22.7126 60.147 23.5223 60.7297 24.0688C61.3123 24.6559 62.096 24.9798 62.8998 24.9595C63.6834 24.9595 64.4067 24.6559 64.9694 24.1296C65.5119 23.583 66.4362 23.6235 66.9586 24.2105C67.5011 24.7773 67.461 25.6882 66.8782 26.2348C65.8133 27.2267 64.4268 27.8137 62.96 27.8339H62.8998Z" fill="#969FA4"/>
<path d="M74.4531 27.9756C71.3788 27.9756 68.847 25.2834 68.847 22.004V17.4494C68.847 16.66 69.4298 16.0122 70.1732 16.0122C70.9368 16.0122 71.6602 16.66 71.6602 17.4494V22.004C71.6602 23.7246 73.0868 25.1011 74.4531 25.1011C76.0606 25.1011 77.2662 23.7246 77.2662 22.004V17.6518C77.2662 16.8421 78.09 16.2146 78.733 16.2146C79.4564 16.2146 80.0792 16.8421 80.0792 17.6518V22.004C80.0792 25.2834 77.5676 27.9756 74.4531 27.9756Z" fill="#969FA4"/>
<path d="M85.9872 27.9554C84.48 27.9554 82.9528 27.3278 82.1896 26.5991C81.6264 26.0727 81.5664 25.1619 82.1088 24.5951C82.6312 24.008 83.5352 23.9675 84.0984 24.4938C84.52 24.8987 86.1072 25.4453 87.012 24.8582C87.2528 24.7165 87.3936 24.4533 87.3936 24.1902C87.3936 23.8663 87.112 23.6234 86.8712 23.5222C86.6504 23.4007 86.288 23.4007 85.8464 23.4007C85.284 23.4007 84.6408 23.3805 83.9776 23.1376C82.752 22.7327 81.7472 21.4574 81.6672 20.2024C81.5464 18.7044 82.1896 17.7732 82.732 17.2469C83.9176 16.1538 85.6456 15.9919 86.8912 16.1943C87.8352 16.3563 88.5392 16.7004 89.1416 17.2469C89.704 17.7732 89.7648 18.6842 89.2424 19.251C88.9408 19.5749 88.4784 19.757 88.0368 19.6963C87.8152 19.6761 87.6144 19.5951 87.4136 19.4736C87.092 19.2307 86.8512 19.0688 86.4288 18.9878C85.7256 18.8663 84.3992 18.9068 84.5 19.9392C84.52 20.0607 84.7408 20.3643 84.9224 20.4453C85.1632 20.5262 85.5048 20.5262 85.8864 20.5262C86.5096 20.5465 87.2728 20.5465 88.0568 20.9109C89.3624 21.4979 90.2064 22.7934 90.2064 24.1699C90.2064 25.3845 89.584 26.5181 88.5792 27.2266C87.7752 27.7731 86.8912 27.9554 85.9872 27.9554Z" fill="#969FA4"/>
<path d="M99.8104 13.0365C99.268 13.6033 98.364 13.6235 97.7816 13.1174C97.46 12.8138 97.0176 12.6113 96.5552 12.6113C95.5712 12.6113 94.7672 13.4413 94.7672 14.4737V17.4291H97.0176C97.8016 17.4291 98.4648 18.0769 98.4648 18.8664C98.4648 19.6761 97.8016 20.3238 97.0176 20.3238H94.7672V26.3764C94.7672 27.1659 94.104 27.8338 93.3008 27.8338C92.5168 27.8338 91.8536 27.1659 91.8536 26.3764V26.3359C91.8536 24.4331 91.8536 22.5303 91.8536 20.6477V14.4535C91.8536 11.8421 93.984 9.71667 96.5552 9.71667C97.7408 9.71667 98.8664 10.162 99.7504 10.9717C100.313 11.5385 100.333 12.4494 99.8104 13.0365Z" fill="#969FA4"/>
<path d="M105.076 27.854C101.821 27.854 99.1488 25.182 99.1488 21.8825C99.1488 18.6031 101.821 15.9108 105.076 15.9108C108.331 15.9108 111.003 18.6031 111.024 21.9027C111.003 25.2023 108.331 27.854 105.076 27.854ZM105.076 18.8461C103.408 18.8461 102.042 20.2023 102.042 21.9027C102.042 23.5828 103.388 24.9593 105.076 24.9593C106.764 24.9593 108.11 23.603 108.11 21.9027C108.11 20.2023 106.764 18.8461 105.076 18.8461Z" fill="#969FA4"/>
<path d="M122.798 25.4857C123.321 26.0322 123.301 26.9229 122.758 27.4695C122.497 27.7326 122.135 27.854 121.794 27.854C121.432 27.854 121.09 27.7124 120.81 27.429L117.494 23.9674L114.238 27.3682C113.978 27.6516 113.616 27.7933 113.254 27.7933C112.933 27.7933 112.571 27.6719 112.29 27.4087C111.747 26.8622 111.727 25.9715 112.27 25.4249L115.605 21.9432L112.25 18.4412C111.727 17.8744 111.727 16.9838 112.29 16.4574C112.832 15.9109 113.716 15.9311 114.258 16.4776L117.514 19.8987L120.85 16.417C121.372 15.8704 122.236 15.8502 122.818 16.3967C123.361 16.923 123.382 17.7935 122.838 18.3805L119.463 21.923L122.798 25.4857Z" fill="#969FA4"/>
</g>
<g clip-path="url(#clip1_0_1)">
<path opacity="0.4" d="M213.171 14.2513L202.447 21.8315H197.681L186.958 14.2513L200.064 5.5882L213.171 14.2513Z" fill="#969FA4"/>
<path fill-rule="evenodd" clip-rule="evenodd" d="M199.458 4.68718C199.825 4.44469 200.303 4.44469 200.67 4.68718L213.776 13.3503C214.08 13.5511 214.262 13.8893 214.262 14.2513V28.3289C214.262 28.9033 214.032 29.4541 213.623 29.8603C213.213 30.2665 212.657 30.4947 212.078 30.4947H188.05C187.47 30.4947 186.915 30.2665 186.505 29.8603C186.095 29.4541 185.865 28.9033 185.865 28.3289V14.2513C185.865 13.8893 186.048 13.5511 186.352 13.3503L199.458 4.68718ZM188.05 14.8309V28.3289H212.078V14.8309L200.064 6.88967L188.05 14.8309Z" fill="#969FA4"/>
<path fill-rule="evenodd" clip-rule="evenodd" d="M198.573 21.2068C198.921 21.6952 198.804 22.371 198.311 22.716L187.925 29.9902C187.432 30.3353 186.75 30.2189 186.402 29.7305C186.054 29.242 186.172 28.5663 186.664 28.2212L197.051 20.947C197.544 20.602 198.225 20.7182 198.573 21.2068Z" fill="#969FA4"/>
<path fill-rule="evenodd" clip-rule="evenodd" d="M201.555 21.2066C201.903 20.7182 202.585 20.6019 203.077 20.9469L213.464 28.2212C213.957 28.5662 214.074 29.2419 213.726 29.7305C213.378 30.219 212.696 30.3353 212.204 29.9902L201.817 22.7159C201.324 22.3709 201.207 21.6952 201.555 21.2066Z" fill="#969FA4"/>
<path fill-rule="evenodd" clip-rule="evenodd" d="M186.068 13.6226C186.419 13.1357 187.101 13.0224 187.592 13.3696L198.03 20.7486H202.097L212.536 13.3696C213.027 13.0224 213.71 13.1357 214.06 13.6226C214.41 14.1097 214.296 14.7859 213.804 15.1331L203.081 22.7133C202.896 22.8441 202.674 22.9145 202.447 22.9145H197.681C197.454 22.9145 197.232 22.8441 197.047 22.7133L186.324 15.1331C185.832 14.7859 185.718 14.1097 186.068 13.6226Z" fill="#969FA4"/>
<path d="M226.017 26.5038C225.724 26.5038 225.477 26.4045 225.277 26.2058C225.077 26.0072 224.976 25.7627 224.976 25.4724V11.7895C224.976 11.377 225.123 11.0255 225.416 10.7352C225.708 10.4296 226.063 10.2769 226.479 10.2769H226.779C227.273 10.2769 227.696 10.506 228.051 10.9644L236.951 23.7076V11.3311C236.951 11.0408 237.051 10.7964 237.251 10.5977C237.451 10.3838 237.698 10.2769 237.991 10.2769C238.284 10.2769 238.53 10.3838 238.731 10.5977C238.946 10.7964 239.054 11.0408 239.054 11.3311V25.014C239.054 25.4266 238.9 25.778 238.592 26.0683C238.299 26.3586 237.945 26.5038 237.529 26.5038H237.251C237.005 26.5038 236.773 26.4503 236.558 26.3433C236.342 26.2211 236.165 26.0683 236.026 25.885L227.08 13.073V25.4724C227.08 25.7627 226.972 26.0072 226.756 26.2058C226.556 26.4045 226.309 26.5038 226.017 26.5038Z" fill="#969FA4"/>
<path d="M248.002 26.6184C246.815 26.6184 245.775 26.3663 244.881 25.8621C243.987 25.3578 243.294 24.6473 242.801 23.7306C242.323 22.7985 242.084 21.7366 242.084 20.5447C242.084 19.353 242.323 18.2987 242.801 17.3819C243.294 16.4498 243.987 15.7317 244.881 15.2275C245.775 14.7233 246.815 14.4711 248.002 14.4711C249.173 14.4711 250.205 14.7233 251.099 15.2275C251.993 15.7317 252.687 16.4498 253.18 17.3819C253.673 18.2987 253.919 19.353 253.919 20.5447C253.919 21.7366 253.673 22.7985 253.18 23.7306C252.687 24.6473 251.993 25.3578 251.099 25.8621C250.205 26.3663 249.173 26.6184 248.002 26.6184ZM248.002 24.7161C248.634 24.7161 249.235 24.571 249.805 24.2806C250.39 23.9903 250.868 23.5319 251.238 22.9055C251.623 22.279 251.816 21.4844 251.816 20.5218C251.816 19.5745 251.623 18.7876 251.238 18.1612C250.868 17.5347 250.39 17.0839 249.805 16.8089C249.235 16.5186 248.634 16.3734 248.002 16.3734C247.354 16.3734 246.738 16.5186 246.152 16.8089C245.582 17.0839 245.112 17.5347 244.742 18.1612C244.372 18.7876 244.188 19.5745 244.188 20.5218C244.188 21.4844 244.372 22.279 244.742 22.9055C245.112 23.5319 245.582 23.9903 246.152 24.2806C246.738 24.571 247.354 24.7161 248.002 24.7161Z" fill="#969FA4"/>
<path d="M260.22 26.5038C259.912 26.5038 259.634 26.4121 259.388 26.2288C259.141 26.0454 258.972 25.8162 258.879 25.5412L255.597 16.0067C255.551 15.8692 255.527 15.7394 255.527 15.6171C255.527 15.3268 255.628 15.0823 255.828 14.8837C256.028 14.685 256.275 14.5858 256.568 14.5858C256.783 14.5858 256.976 14.6468 257.146 14.7691C257.331 14.876 257.454 15.0212 257.515 15.2046L260.22 24.0285L262.902 15.4108C262.979 15.1663 263.117 14.9678 263.318 14.8149C263.533 14.6621 263.772 14.5858 264.034 14.5858C264.296 14.5858 264.527 14.6621 264.728 14.8149C264.944 14.9678 265.09 15.1663 265.167 15.4108L267.848 24.0285L270.553 15.2046C270.615 15.0212 270.73 14.876 270.9 14.7691C271.085 14.6468 271.285 14.5858 271.501 14.5858C271.794 14.5858 272.04 14.685 272.241 14.8837C272.441 15.0823 272.541 15.3268 272.541 15.6171C272.541 15.7394 272.518 15.8692 272.472 16.0067L269.189 25.5412C269.097 25.8162 268.927 26.0454 268.681 26.2288C268.434 26.4121 268.157 26.5038 267.848 26.5038C267.54 26.5038 267.263 26.4121 267.016 26.2288C266.77 26.0454 266.593 25.8086 266.485 25.5182L264.034 17.9319L261.584 25.5182C261.476 25.8086 261.299 26.0454 261.052 26.2288C260.806 26.4121 260.528 26.5038 260.22 26.5038Z" fill="#969FA4"/>
<path fill-rule="evenodd" clip-rule="evenodd" d="M228.172 10.8718C228.173 10.8738 228.175 10.8757 228.176 10.8778L236.796 23.2201V11.3312C236.796 11.0029 236.911 10.72 237.14 10.4921C237.369 10.2487 237.655 10.1246 237.99 10.1246C238.324 10.1246 238.61 10.248 238.838 10.49C239.082 10.7166 239.207 11.0001 239.207 11.3312V25.014C239.207 25.4687 239.035 25.8593 238.698 26.1774C238.377 26.4955 237.984 26.6561 237.528 26.6561H237.25C236.98 26.6561 236.726 26.5973 236.488 26.4796C236.486 26.4784 236.483 26.477 236.48 26.4756C236.248 26.3439 236.054 26.1776 235.902 25.9763L235.899 25.9717L227.233 13.5607V25.4724C227.233 25.8044 227.107 26.0886 226.862 26.3156C226.632 26.5425 226.347 26.6561 226.016 26.6561C225.684 26.6561 225.398 26.5418 225.167 26.3136C224.937 26.0853 224.822 25.8016 224.822 25.4724V11.7896C224.822 11.3375 224.984 10.9477 225.305 10.629C225.626 10.2948 226.019 10.1246 226.478 10.1246H226.779C227.328 10.1246 227.794 10.3835 228.172 10.8718ZM225.415 10.7353C225.707 10.4297 226.062 10.2769 226.478 10.2769H226.779C227.272 10.2769 227.695 10.5061 228.05 10.9645L236.95 23.7076V11.3312C236.95 11.0409 237.05 10.7964 237.25 10.5978C237.451 10.3839 237.697 10.2769 237.99 10.2769C238.283 10.2769 238.529 10.3839 238.73 10.5978C238.945 10.7964 239.053 11.0409 239.053 11.3312V25.014C239.053 25.4266 238.899 25.778 238.591 26.0683C238.298 26.3586 237.944 26.5038 237.528 26.5038H237.25C237.004 26.5038 236.772 26.4503 236.557 26.3434C236.341 26.2212 236.164 26.0683 236.025 25.885L227.079 13.073V25.4724C227.079 25.7628 226.971 26.0072 226.755 26.2058C226.555 26.4045 226.309 26.5038 226.016 26.5038C225.723 26.5038 225.476 26.4045 225.276 26.2058C225.076 26.0072 224.975 25.7628 224.975 25.4724V11.7896C224.975 11.377 225.122 11.0256 225.415 10.7353ZM242.663 23.7995C242.173 22.8433 241.929 21.7572 241.929 20.5447C241.929 19.3324 242.173 18.2535 242.663 17.312L242.664 17.3112C243.17 16.3542 243.884 15.6142 244.804 15.0951C245.724 14.5759 246.792 14.3188 248.001 14.3188C249.195 14.3188 250.254 14.5761 251.174 15.0951C252.094 15.6141 252.808 16.3538 253.315 17.3105C253.821 18.2523 254.072 19.3318 254.072 20.5447C254.072 21.7579 253.821 22.8447 253.315 23.8014L253.314 23.8022C252.808 24.7439 252.094 25.4757 251.174 25.9945C250.254 26.5135 249.195 26.7708 248.001 26.7708C246.792 26.7708 245.724 26.5136 244.804 25.9945C243.885 25.4757 243.171 24.7439 242.664 23.8022L242.663 23.7995ZM253.179 17.3819C252.686 16.4499 251.992 15.7317 251.098 15.2275C250.205 14.7233 249.172 14.4711 248.001 14.4711C246.814 14.4711 245.774 14.7233 244.88 15.2275C243.986 15.7317 243.293 16.4499 242.8 17.3819C242.322 18.2987 242.083 19.353 242.083 20.5447C242.083 21.7366 242.322 22.7985 242.8 23.7306C243.293 24.6473 243.986 25.3579 244.88 25.8621C245.774 26.3663 246.814 26.6184 248.001 26.6184C249.172 26.6184 250.205 26.3663 251.098 25.8621C251.992 25.3579 252.686 24.6473 253.179 23.7306C253.672 22.7985 253.919 21.7366 253.919 20.5447C253.919 19.353 253.672 18.2987 253.179 17.3819ZM249.734 24.1451L249.735 24.1444C250.291 23.8688 250.748 23.4326 251.104 22.8285L251.106 22.8261C251.473 22.23 251.661 21.465 251.661 20.5218C251.661 19.5945 251.473 18.837 251.106 18.2405L251.104 18.2381C250.748 17.6346 250.292 17.2068 249.738 16.9466L249.734 16.9445C249.185 16.6651 248.608 16.5257 248.001 16.5257C247.378 16.5257 246.785 16.6653 246.22 16.9452L246.219 16.9459C245.68 17.2058 245.231 17.6335 244.874 18.2381C244.522 18.8351 244.34 19.5935 244.34 20.5218C244.34 21.4659 244.522 22.2318 244.874 22.8285C245.231 23.4334 245.681 23.8695 246.221 24.1448C246.785 24.4244 247.378 24.5638 248.001 24.5638C248.608 24.5638 249.185 24.4245 249.734 24.1451ZM246.151 24.2807C245.581 23.9903 245.111 23.5319 244.741 22.9055C244.372 22.279 244.187 21.4845 244.187 20.5218C244.187 19.5746 244.372 18.7876 244.741 18.1611C245.111 17.5347 245.581 17.0839 246.151 16.8089C246.737 16.5186 247.354 16.3735 248.001 16.3735C248.633 16.3735 249.234 16.5186 249.804 16.8089C250.389 17.0839 250.867 17.5347 251.237 18.1611C251.622 18.7876 251.815 19.5746 251.815 20.5218C251.815 21.4845 251.622 22.279 251.237 22.9055C250.867 23.5319 250.389 23.9903 249.804 24.2807C249.234 24.5709 248.633 24.7161 248.001 24.7161C247.354 24.7161 246.737 24.5709 246.151 24.2807ZM272.471 16.0067L269.188 25.5412C269.096 25.8163 268.926 26.0454 268.68 26.2288C268.433 26.4121 268.156 26.5038 267.848 26.5038C267.539 26.5038 267.262 26.4121 267.015 26.2288C266.769 26.0454 266.592 25.8086 266.484 25.5183L264.033 17.932L261.583 25.5183C261.475 25.8086 261.298 26.0454 261.051 26.2288C260.805 26.4121 260.527 26.5038 260.219 26.5038C259.911 26.5038 259.634 26.4121 259.387 26.2288C259.14 26.0454 258.971 25.8163 258.878 25.5412L255.596 16.0067C255.55 15.8692 255.527 15.7393 255.527 15.6171C255.527 15.3268 255.627 15.0823 255.827 14.8837C256.027 14.685 256.274 14.5857 256.567 14.5857C256.783 14.5857 256.975 14.6469 257.145 14.7691C257.33 14.876 257.453 15.0212 257.515 15.2046L260.219 24.0285L262.901 15.4108C262.978 15.1663 263.116 14.9677 263.317 14.8149C263.533 14.6621 263.771 14.5857 264.033 14.5857C264.295 14.5857 264.527 14.6621 264.727 14.8149C264.943 14.9677 265.089 15.1663 265.166 15.4108L267.848 24.0285L270.552 15.2046C270.614 15.0212 270.729 14.876 270.899 14.7691C271.084 14.6469 271.284 14.5857 271.5 14.5857C271.793 14.5857 272.039 14.685 272.24 14.8837C272.44 15.0823 272.54 15.3268 272.54 15.6171C272.54 15.7393 272.517 15.8692 272.471 16.0067ZM270.815 14.6414C271.024 14.5037 271.254 14.4334 271.5 14.4334C271.832 14.4334 272.118 14.5478 272.348 14.776C272.579 15.0042 272.694 15.2879 272.694 15.6171C272.694 15.7584 272.667 15.9046 272.617 16.0549L272.616 16.0559L269.334 25.5894C269.334 25.5896 269.334 25.5899 269.334 25.5902C269.231 25.8959 269.042 26.1499 268.772 26.3506C268.499 26.5538 268.189 26.6561 267.848 26.6561C267.506 26.6561 267.196 26.5538 266.923 26.3506C266.653 26.1494 266.458 25.8885 266.34 25.5709C266.339 25.5689 266.338 25.5668 266.337 25.5647L264.033 18.4314L261.729 25.5647C261.729 25.5668 261.728 25.5689 261.727 25.5709C261.609 25.8885 261.414 26.1494 261.144 26.3506C260.87 26.5538 260.561 26.6561 260.219 26.6561C259.878 26.6561 259.568 26.5538 259.295 26.3506C259.025 26.1499 258.836 25.8959 258.733 25.5902C258.733 25.5899 258.733 25.5896 258.733 25.5894L255.45 16.0549C255.4 15.9046 255.373 15.7584 255.373 15.6171C255.373 15.2879 255.488 15.0042 255.718 14.776C255.949 14.5478 256.235 14.4334 256.567 14.4334C256.811 14.4334 257.034 14.5026 257.229 14.6414C257.439 14.7648 257.586 14.9367 257.66 15.1564L257.662 15.1602L260.22 23.5083L262.754 15.366L262.754 15.3654C262.84 15.0917 262.997 14.8665 263.223 14.6942L263.228 14.691C263.469 14.52 263.739 14.4334 264.033 14.4334C264.327 14.4334 264.591 14.5195 264.818 14.6925C265.059 14.8638 265.226 15.0892 265.313 15.3654L265.313 15.366L267.847 23.5083L270.406 15.1564C270.479 14.9393 270.618 14.7665 270.815 14.6414Z" fill="#969FA4"/>
<path d="M277.31 26.5038C277.016 26.5038 276.769 26.4045 276.569 26.2058C276.369 26.0072 276.269 25.7627 276.269 25.4724V11.3311C276.269 11.0408 276.369 10.7964 276.569 10.5977C276.769 10.3838 277.016 10.2769 277.31 10.2769C277.602 10.2769 277.849 10.3838 278.049 10.5977C278.264 10.7964 278.373 11.0408 278.373 11.3311V25.4724C278.373 25.7627 278.264 26.0072 278.049 26.2058C277.849 26.4045 277.602 26.5038 277.31 26.5038Z" fill="#969FA4"/>
<path d="M283.259 26.5038C282.966 26.5038 282.72 26.4045 282.52 26.2059C282.319 26.0072 282.219 25.7627 282.219 25.4724V15.6401C282.219 15.3497 282.319 15.1052 282.52 14.9066C282.72 14.6927 282.966 14.5858 283.259 14.5858C283.552 14.5858 283.799 14.6927 283.999 14.9066C284.214 15.1052 284.322 15.3497 284.322 15.6401V16.5797C284.908 15.9379 285.54 15.4261 286.218 15.0441C286.896 14.6621 287.697 14.4711 288.622 14.4711C289.47 14.4711 290.202 14.6698 290.818 15.067C291.45 15.4643 291.928 16.0067 292.251 16.6943C292.59 17.3819 292.76 18.1383 292.76 18.9633V25.4724C292.76 25.7627 292.652 26.0072 292.437 26.2059C292.236 26.4045 291.989 26.5038 291.697 26.5038C291.404 26.5038 291.158 26.4045 290.957 26.2059C290.756 26.0072 290.656 25.7627 290.656 25.4724V19.1926C290.656 17.3284 289.809 16.3963 288.114 16.3963C287.343 16.3963 286.649 16.595 286.033 16.9922C285.432 17.3896 284.862 17.9243 284.322 18.5966V25.4724C284.322 25.7627 284.214 26.0072 283.999 26.2059C283.799 26.4045 283.552 26.5038 283.259 26.5038Z" fill="#969FA4"/>
<path fill-rule="evenodd" clip-rule="evenodd" d="M277.309 26.6561C276.977 26.6561 276.691 26.5418 276.461 26.3136C276.231 26.0853 276.115 25.8016 276.115 25.4724V11.3312C276.115 11.0029 276.23 10.72 276.458 10.4921C276.688 10.2487 276.974 10.1246 277.309 10.1246C277.643 10.1246 277.929 10.248 278.157 10.49C278.402 10.7166 278.526 11.0001 278.526 11.3312V25.4724C278.526 25.8044 278.401 26.0886 278.156 26.3156C277.925 26.5425 277.64 26.6561 277.309 26.6561ZM278.048 26.2058C278.265 26.0072 278.373 25.7628 278.373 25.4724V11.3312C278.373 11.0409 278.265 10.7964 278.048 10.5978C277.848 10.3839 277.602 10.2769 277.309 10.2769C277.016 10.2769 276.769 10.3839 276.569 10.5978C276.369 10.7964 276.269 11.0409 276.269 11.3312V25.4724C276.269 25.7628 276.369 26.0072 276.569 26.2058C276.769 26.4045 277.016 26.5038 277.309 26.5038C277.602 26.5038 277.848 26.4045 278.048 26.2058ZM283.259 26.6561C282.927 26.6561 282.641 26.5418 282.411 26.3136C282.181 26.0853 282.065 25.8016 282.065 25.4724V15.64C282.065 15.3118 282.18 15.0288 282.409 14.8009C282.637 14.5575 282.924 14.4334 283.259 14.4334C283.593 14.4334 283.879 14.5568 284.107 14.7989C284.351 15.0255 284.476 15.309 284.476 15.64V16.1964C284.995 15.6734 285.55 15.2447 286.142 14.9117C286.847 14.5144 287.675 14.3188 288.622 14.3188C289.495 14.3188 290.256 14.5235 290.901 14.9388C291.557 15.3518 292.054 15.9162 292.39 16.6287C292.74 17.3383 292.914 18.1174 292.914 18.9633V25.4724C292.914 25.8044 292.788 26.0886 292.543 26.3156C292.313 26.5425 292.027 26.6561 291.696 26.6561C291.364 26.6561 291.079 26.5418 290.848 26.3136C290.618 26.0853 290.502 25.8016 290.502 25.4724V19.1925C290.502 18.2803 290.295 17.6245 289.907 17.1974C289.521 16.7733 288.933 16.5486 288.114 16.5486C287.371 16.5486 286.707 16.7394 286.118 17.1195C285.544 17.4983 284.997 18.0075 284.476 18.65V25.4724C284.476 25.8044 284.35 26.0886 284.105 26.3156C283.875 26.5425 283.59 26.6561 283.259 26.6561ZM283.999 26.2058C284.214 26.0072 284.322 25.7628 284.322 25.4724V18.5966C284.862 17.9243 285.432 17.3896 286.033 16.9922C286.649 16.595 287.342 16.3964 288.114 16.3964C289.808 16.3964 290.656 17.3284 290.656 19.1925V25.4724C290.656 25.7628 290.756 26.0072 290.956 26.2058C291.157 26.4045 291.404 26.5038 291.696 26.5038C291.989 26.5038 292.235 26.4045 292.437 26.2058C292.652 26.0072 292.76 25.7628 292.76 25.4724V18.9633C292.76 18.1382 292.59 17.3819 292.251 16.6944C291.928 16.0067 291.45 15.4643 290.818 15.067C290.202 14.6698 289.469 14.4711 288.622 14.4711C287.697 14.4711 286.896 14.6621 286.218 15.0441C285.599 15.393 285.018 15.85 284.476 16.4155C284.424 16.4692 284.373 16.524 284.322 16.5797V15.64C284.322 15.3498 284.214 15.1053 283.999 14.9066C283.799 14.6927 283.552 14.5857 283.259 14.5857C282.966 14.5857 282.72 14.6927 282.519 14.9066C282.319 15.1053 282.218 15.3498 282.218 15.64V25.4724C282.218 25.7628 282.319 26.0072 282.519 26.2058C282.72 26.4045 282.966 26.5038 283.259 26.5038C283.552 26.5038 283.799 26.4045 283.999 26.2058Z" fill="#969FA4"/>
<path d="M299.904 26.5037C299.611 26.5037 299.365 26.4044 299.164 26.2058C298.964 26.0071 298.863 25.7627 298.863 25.4723V12.3396H294.148C293.87 12.3396 293.639 12.2479 293.455 12.0645C293.269 11.8812 293.177 11.652 293.177 11.377C293.177 11.1019 293.269 10.8727 293.455 10.6894C293.639 10.4907 293.87 10.3914 294.148 10.3914H305.66C305.938 10.3914 306.169 10.4907 306.353 10.6894C306.553 10.8727 306.653 11.1019 306.653 11.377C306.653 11.652 306.553 11.8812 306.353 12.0645C306.169 12.2479 305.938 12.3396 305.66 12.3396H300.967V25.4723C300.967 25.7627 300.859 26.0071 300.644 26.2058C300.444 26.4044 300.197 26.5037 299.904 26.5037Z" fill="#969FA4"/>
<path d="M312.57 26.6183C310.69 26.6183 309.218 26.0911 308.155 25.0368C307.107 23.9673 306.582 22.4699 306.582 20.5446C306.582 19.4598 306.783 18.459 307.184 17.5422C307.585 16.6254 308.2 15.8844 309.033 15.3191C309.865 14.7537 310.89 14.471 312.108 14.471C313.248 14.471 314.234 14.7384 315.066 15.2732C315.898 15.7927 316.531 16.4956 316.962 17.3818C317.393 18.2528 317.609 19.2077 317.609 20.2467C317.609 20.537 317.509 20.7815 317.309 20.9801C317.124 21.1788 316.87 21.2781 316.546 21.2781H308.709C308.833 22.3476 309.233 23.1803 309.912 23.7763C310.59 24.3722 311.538 24.6701 312.755 24.6701C313.402 24.6701 313.965 24.609 314.442 24.4868C314.935 24.3645 315.413 24.1888 315.875 23.9597C315.998 23.8985 316.137 23.868 316.292 23.868C316.538 23.868 316.754 23.952 316.938 24.1201C317.124 24.2881 317.216 24.502 317.216 24.7618C317.216 25.0979 317.016 25.3807 316.615 25.6098C316.014 25.946 315.42 26.1981 314.835 26.3662C314.249 26.5343 313.495 26.6183 312.57 26.6183ZM315.528 19.582C315.483 18.8333 315.282 18.2069 314.928 17.7026C314.588 17.1984 314.165 16.8317 313.656 16.6025C313.148 16.358 312.631 16.2359 312.108 16.2359C311.583 16.2359 311.068 16.358 310.559 16.6025C310.05 16.8317 309.626 17.1984 309.287 17.7026C308.948 18.2069 308.756 18.8333 308.709 19.582H315.528Z" fill="#969FA4"/>
<path d="M325.848 26.6183C324.738 26.6183 323.714 26.3738 322.774 25.8849C321.833 25.3959 321.079 24.693 320.508 23.7763C319.953 22.8595 319.676 21.7823 319.676 20.5446C319.676 19.307 319.953 18.2298 320.508 17.313C321.079 16.3963 321.833 15.6934 322.774 15.2045C323.714 14.7155 324.738 14.471 325.848 14.471C326.665 14.471 327.366 14.578 327.952 14.7919C328.552 14.9905 329.108 15.2503 329.616 15.5711C329.925 15.7698 330.078 16.0372 330.078 16.3733C330.078 16.6025 329.986 16.8164 329.801 17.0151C329.631 17.1984 329.431 17.2901 329.2 17.2901C329.03 17.2901 328.861 17.2443 328.691 17.1525C328.183 16.8928 327.743 16.7095 327.374 16.6025C327.02 16.4802 326.572 16.4192 326.033 16.4192C324.707 16.4192 323.667 16.8012 322.912 17.5651C322.157 18.3138 321.78 19.307 321.78 20.5446C321.78 21.7823 322.157 22.7831 322.912 23.5471C323.667 24.2958 324.707 24.6701 326.033 24.6701C326.572 24.6701 327.02 24.6167 327.374 24.5097C327.743 24.3875 328.183 24.1965 328.691 23.9367C328.861 23.8451 329.03 23.7992 329.2 23.7992C329.431 23.7992 329.631 23.8985 329.801 24.0971C329.986 24.2805 330.078 24.4868 330.078 24.7159C330.078 25.0521 329.925 25.3195 329.616 25.5182C329.108 25.8391 328.552 26.1064 327.952 26.3204C327.366 26.5189 326.665 26.6183 325.848 26.6183Z" fill="#969FA4"/>
<path d="M333.758 26.5037C333.466 26.5037 333.219 26.4044 333.018 26.2058C332.818 26.0071 332.718 25.7627 332.718 25.4723V10.5977C332.718 10.3074 332.818 10.0629 333.018 9.86427C333.219 9.65036 333.466 9.5434 333.758 9.5434C334.052 9.5434 334.297 9.65036 334.498 9.86427C334.714 10.0629 334.822 10.3074 334.822 10.5977V16.5797C335.408 15.9379 336.039 15.4261 336.718 15.0441C337.396 14.6621 338.197 14.4711 339.121 14.4711C339.969 14.4711 340.701 14.6697 341.317 15.067C341.95 15.4642 342.427 16.0067 342.751 16.6943C343.09 17.3818 343.259 18.1382 343.259 18.9632V25.4723C343.259 25.7627 343.151 26.0071 342.935 26.2058C342.735 26.4044 342.489 26.5037 342.196 26.5037C341.903 26.5037 341.656 26.4044 341.456 26.2058C341.256 26.0071 341.156 25.7627 341.156 25.4723V19.1925C341.156 17.3283 340.308 16.3963 338.613 16.3963C337.842 16.3963 337.149 16.5949 336.532 16.9922C335.931 17.3895 335.361 17.9243 334.822 18.5966V25.4723C334.822 25.7627 334.714 26.0071 334.498 26.2058C334.297 26.4044 334.052 26.5037 333.758 26.5037Z" fill="#969FA4"/>
<path fill-rule="evenodd" clip-rule="evenodd" d="M308.044 25.1431C306.961 24.0375 306.429 22.4976 306.429 20.5447C306.429 19.4408 306.633 18.4192 307.043 17.4817C307.455 16.5386 308.09 15.775 308.946 15.1935C309.809 14.6074 310.866 14.3188 312.108 14.3188C313.273 14.3188 314.288 14.5922 315.149 15.1449C316.005 15.6797 316.656 16.404 317.1 17.3152C317.543 18.2084 317.762 19.1864 317.762 20.2468C317.762 20.5749 317.648 20.8578 317.42 21.0858C317.2 21.32 316.902 21.4305 316.546 21.4305H308.884C309.025 22.3878 309.405 23.1273 310.014 23.6623C310.655 24.2262 311.561 24.5179 312.754 24.5179C313.393 24.5179 313.942 24.4576 314.404 24.3393L314.405 24.3391C314.887 24.2196 315.355 24.0478 315.807 23.8235C315.954 23.7506 316.116 23.7157 316.292 23.7157C316.577 23.7157 316.829 23.8146 317.042 24.0079C317.261 24.2062 317.37 24.4616 317.37 24.7619C317.37 25.1716 317.12 25.4967 316.692 25.7419L316.691 25.7426C316.08 26.0838 315.477 26.3408 314.878 26.5126C314.273 26.6861 313.502 26.7706 312.57 26.7706C310.659 26.7706 309.145 26.2342 308.046 25.1446L308.044 25.1431ZM308.729 21.4305C308.721 21.3802 308.715 21.3295 308.709 21.2782H316.546C316.869 21.2782 317.124 21.1789 317.308 20.9802C317.509 20.7815 317.609 20.5371 317.609 20.2468C317.609 19.2078 317.393 18.2528 316.962 17.3819C316.53 16.4957 315.898 15.7928 315.066 15.2733C314.234 14.7385 313.248 14.4711 312.108 14.4711C310.89 14.4711 309.865 14.7537 309.033 15.3191C308.2 15.8844 307.585 16.6255 307.183 17.5423C306.783 18.4591 306.582 19.4599 306.582 20.5447C306.582 22.47 307.107 23.9674 308.155 25.0369C309.218 26.0912 310.69 26.6184 312.57 26.6184C313.494 26.6184 314.249 26.5344 314.835 26.3663C315.42 26.1982 316.014 25.9461 316.615 25.6099C317.016 25.3808 317.216 25.098 317.216 24.7619C317.216 24.5021 317.124 24.2882 316.938 24.1201C316.754 23.9521 316.538 23.8681 316.292 23.8681C316.137 23.8681 315.998 23.8986 315.875 23.9597C315.413 24.1889 314.936 24.3646 314.442 24.4869C313.964 24.6091 313.402 24.6702 312.754 24.6702C311.537 24.6702 310.59 24.3723 309.912 23.7763C309.266 23.2091 308.872 22.427 308.729 21.4305ZM314.799 17.7872C314.475 17.3044 314.073 16.9576 313.592 16.7413L313.589 16.7397C313.1 16.5045 312.607 16.3882 312.108 16.3882C311.609 16.3882 311.115 16.5045 310.626 16.7396L310.622 16.7413C310.142 16.9576 309.739 17.3044 309.415 17.7872C309.118 18.2285 308.937 18.7741 308.875 19.4298H315.362C315.3 18.7753 315.111 18.2307 314.801 17.7898L314.799 17.7872ZM315.517 19.4298C315.521 19.48 315.526 19.5307 315.528 19.5821H308.709C308.713 19.5307 308.716 19.48 308.72 19.4298C308.783 18.7481 308.972 18.1724 309.287 17.7027C309.626 17.1985 310.05 16.8318 310.558 16.6026C311.067 16.3581 311.583 16.2359 312.108 16.2359C312.631 16.2359 313.148 16.3581 313.656 16.6026C314.165 16.8318 314.589 17.1985 314.928 17.7027C315.258 18.1724 315.454 18.7481 315.517 19.4298ZM320.378 23.8563L320.377 23.8547C319.805 22.9108 319.522 21.8055 319.522 20.5447C319.522 19.2839 319.805 18.1787 320.377 17.2348L320.378 17.2331C320.962 16.2937 321.737 15.5716 322.702 15.0696C323.665 14.5687 324.714 14.3188 325.848 14.3188C326.676 14.3188 327.395 14.427 328.002 14.6483C328.614 14.8505 329.18 15.1153 329.698 15.4428L329.7 15.4435C330.047 15.6675 330.232 15.9808 330.232 16.3734C330.232 16.6477 330.12 16.8971 329.914 17.1185C329.718 17.3301 329.477 17.4425 329.2 17.4425C329.001 17.4425 328.808 17.3888 328.619 17.2873C328.117 17.0304 327.687 16.852 327.33 16.7489L327.327 16.7477L327.323 16.7464C326.991 16.6317 326.562 16.5715 326.033 16.5715C324.739 16.5715 323.742 16.9435 323.022 17.6718L323.021 17.673C322.3 18.3882 321.933 19.3402 321.933 20.5447C321.933 21.7489 322.299 22.709 323.021 23.4399C323.741 24.1532 324.738 24.5179 326.033 24.5179C326.562 24.5179 326.992 24.4654 327.327 24.3646C327.686 24.2458 328.117 24.059 328.619 23.8022C328.808 23.7006 329.001 23.6469 329.2 23.6469C329.48 23.6469 329.72 23.7694 329.914 23.994C330.12 24.2009 330.232 24.443 330.232 24.716C330.232 25.1088 330.047 25.422 329.7 25.646L329.698 25.6468C329.18 25.974 328.615 26.2462 328.003 26.4638L328.001 26.4645C327.395 26.6701 326.676 26.7706 325.848 26.7706C324.714 26.7706 323.665 26.5208 322.702 26.0198C321.737 25.5178 320.962 24.7958 320.378 23.8563ZM329.801 24.0972C329.631 23.8986 329.431 23.7993 329.2 23.7993C329.03 23.7993 328.861 23.8452 328.691 23.9368C328.183 24.1966 327.743 24.3875 327.374 24.5098C327.02 24.6167 326.572 24.6702 326.033 24.6702C324.707 24.6702 323.667 24.2959 322.912 23.5472C322.157 22.7832 321.78 21.7824 321.78 20.5447C321.78 19.3071 322.157 18.3139 322.912 17.5652C323.667 16.8012 324.707 16.4193 326.033 16.4193C326.572 16.4193 327.02 16.4803 327.374 16.6026C327.743 16.7096 328.183 16.8929 328.691 17.1526C328.861 17.2444 329.03 17.2902 329.2 17.2902C329.431 17.2902 329.631 17.1985 329.801 17.0151C329.986 16.8165 330.078 16.6026 330.078 16.3734C330.078 16.0373 329.924 15.7699 329.616 15.5712C329.108 15.2504 328.552 14.9906 327.952 14.792C327.366 14.5781 326.665 14.4711 325.848 14.4711C324.738 14.4711 323.713 14.7156 322.773 15.2045C321.833 15.6934 321.079 16.3963 320.508 17.3131C319.953 18.2299 319.676 19.3071 319.676 20.5447C319.676 21.7824 319.953 22.8596 320.508 23.7763C321.079 24.6931 321.833 25.396 322.773 25.885C323.713 26.3739 324.738 26.6184 325.848 26.6184C326.665 26.6184 327.366 26.519 327.952 26.3204C328.552 26.1065 329.108 25.8391 329.616 25.5182C329.924 25.3196 330.078 25.0522 330.078 24.716C330.078 24.4869 329.986 24.2806 329.801 24.0972ZM299.903 26.6561C299.571 26.6561 299.286 26.5418 299.056 26.3136C298.826 26.0853 298.71 25.8016 298.71 25.4724V12.4919H294.148C293.832 12.4919 293.561 12.3861 293.346 12.1723C293.13 11.9585 293.023 11.6897 293.023 11.377C293.023 11.0653 293.13 10.7973 293.343 10.5839C293.557 10.3548 293.83 10.2391 294.148 10.2391H305.66C305.977 10.2391 306.248 10.3541 306.462 10.5816C306.691 10.7937 306.807 11.0623 306.807 11.377C306.807 11.6927 306.69 11.962 306.459 12.1744C306.244 12.3868 305.974 12.4919 305.66 12.4919H301.121V25.4724C301.121 25.8044 300.995 26.0886 300.75 26.3155C300.52 26.5425 300.235 26.6561 299.903 26.6561ZM300.643 26.2058C300.859 26.0072 300.967 25.7627 300.967 25.4724V12.3396H305.66C305.938 12.3396 306.169 12.2479 306.353 12.0646C306.553 11.8812 306.653 11.652 306.653 11.377C306.653 11.1019 306.553 10.8728 306.353 10.6894C306.169 10.4908 305.938 10.3914 305.66 10.3914H294.148C293.87 10.3914 293.639 10.4908 293.455 10.6894C293.269 10.8728 293.177 11.1019 293.177 11.377C293.177 11.652 293.269 11.8812 293.455 12.0646C293.639 12.2479 293.87 12.3396 294.148 12.3396H298.863V25.4724C298.863 25.7627 298.963 26.0072 299.164 26.2058C299.364 26.4045 299.611 26.5038 299.903 26.5038C300.197 26.5038 300.443 26.4045 300.643 26.2058ZM333.758 26.6561C333.426 26.6561 333.141 26.5418 332.91 26.3136C332.679 26.0853 332.564 25.8016 332.564 25.4724V10.5977C332.564 10.2695 332.679 9.98647 332.908 9.75857C333.137 9.51519 333.423 9.39111 333.758 9.39111C334.092 9.39111 334.378 9.51449 334.607 9.75653C334.851 9.98316 334.976 10.2667 334.976 10.5977V16.1964C335.495 15.6733 336.05 15.2447 336.641 14.9116C337.347 14.5144 338.175 14.3188 339.121 14.3188C339.993 14.3188 340.756 14.5234 341.401 14.9388C342.057 15.3517 342.553 15.9161 342.889 16.6285C343.239 17.3382 343.413 18.1173 343.413 18.9633V25.4724C343.413 25.8044 343.288 26.0886 343.042 26.3156C342.812 26.5425 342.527 26.6561 342.196 26.6561C341.864 26.6561 341.577 26.5418 341.347 26.3135C341.117 26.0853 341.002 25.8016 341.002 25.4724V19.1924C341.002 18.2803 340.795 17.6245 340.405 17.1973C340.02 16.7732 339.432 16.5486 338.612 16.5486C337.871 16.5486 337.207 16.7394 336.617 17.1195C336.044 17.4982 335.497 18.0075 334.976 18.65V25.4724C334.976 25.8044 334.85 26.0885 334.605 26.3155C334.375 26.5425 334.089 26.6561 333.758 26.6561ZM334.498 26.2058C334.714 26.0072 334.822 25.7627 334.822 25.4724V18.5966C335.361 17.9243 335.931 17.3895 336.532 16.9922C337.149 16.595 337.842 16.3963 338.612 16.3963C340.308 16.3963 341.156 17.3284 341.156 19.1924V25.4724C341.156 25.7627 341.256 26.0072 341.456 26.2058C341.656 26.4045 341.903 26.5038 342.196 26.5038C342.488 26.5038 342.735 26.4045 342.935 26.2058C343.151 26.0072 343.259 25.7627 343.259 25.4724V18.9633C343.259 18.1382 343.09 17.3819 342.751 16.6942C342.427 16.0067 341.949 15.4643 341.317 15.067C340.701 14.6698 339.969 14.4711 339.121 14.4711C338.197 14.4711 337.395 14.6621 336.718 15.0441C336.098 15.3929 335.518 15.85 334.976 16.4155C334.924 16.4692 334.873 16.524 334.822 16.5797V10.5977C334.822 10.3074 334.714 10.0629 334.498 9.8643C334.297 9.65039 334.052 9.54343 333.758 9.54343C333.466 9.54343 333.219 9.65039 333.018 9.8643C332.818 10.0629 332.718 10.3074 332.718 10.5977V25.4724C332.718 25.7627 332.818 26.0072 333.018 26.2058C333.219 26.4045 333.466 26.5038 333.758 26.5038C334.052 26.5038 334.297 26.4045 334.498 26.2058Z" fill="#969FA4"/>
</g>
<path d="M453.194 27.3043C451.308 27.3043 449.655 26.8781 448.236 26.0256C446.835 25.1731 445.73 23.9963 444.922 22.4952C444.131 20.9756 443.736 19.2243 443.736 17.2413C443.736 15.2584 444.131 13.5164 444.922 12.0152C445.73 10.4956 446.835 9.30955 448.236 8.45707C449.655 7.60458 451.308 7.17834 453.194 7.17834C455.062 7.17834 456.706 7.60458 458.125 8.45707C459.544 9.30955 460.649 10.4956 461.439 12.0152C462.23 13.5164 462.625 15.2584 462.625 17.2413C462.625 19.2243 462.23 20.9756 461.439 22.4952C460.649 23.9963 459.544 25.1731 458.125 26.0256C456.706 26.8781 455.062 27.3043 453.194 27.3043ZM453.194 24.1075C454.99 24.1075 456.419 23.4959 457.478 22.2729C458.556 21.0497 459.095 19.3725 459.095 17.2413C459.095 15.1102 458.556 13.4329 457.478 12.2098C456.419 10.9867 454.99 10.3751 453.194 10.3751C451.398 10.3751 449.961 10.9867 448.883 12.2098C447.805 13.4329 447.266 15.1102 447.266 17.2413C447.266 19.3725 447.805 21.0497 448.883 22.2729C449.961 23.4959 451.398 24.1075 453.194 24.1075Z" fill="#969FA4"/>
<path d="M465.589 33.0864V13.1828H468.661L469.039 15.1564C469.47 14.5449 470.036 14.0075 470.736 13.5442C471.455 13.0808 472.38 12.8492 473.511 12.8492C474.769 12.8492 475.892 13.1642 476.88 13.7943C477.868 14.4244 478.649 15.2862 479.224 16.3796C479.799 17.473 480.086 18.7146 480.086 20.1046C480.086 21.4944 479.799 22.7361 479.224 23.8295C478.649 24.9044 477.868 25.7569 476.88 26.387C475.892 26.9985 474.769 27.3043 473.511 27.3043C472.506 27.3043 471.625 27.1097 470.871 26.7205C470.116 26.3314 469.506 25.7847 469.039 25.0804V33.0864H465.589ZM472.784 24.1909C473.88 24.1909 474.787 23.811 475.505 23.0512C476.224 22.2913 476.583 21.3092 476.583 20.1046C476.583 18.9 476.224 17.9085 475.505 17.1301C474.787 16.3518 473.88 15.9626 472.784 15.9626C471.67 15.9626 470.754 16.3518 470.036 17.1301C469.335 17.89 468.985 18.8722 468.985 20.0767C468.985 21.2813 469.335 22.2729 470.036 23.0512C470.754 23.811 471.67 24.1909 472.784 24.1909Z" fill="#969FA4"/>
<path d="M488.596 26.9707C487.195 26.9707 486.072 26.6186 485.228 25.9144C484.384 25.2101 483.961 23.9593 483.961 22.1616V16.1572H481.671V13.1828H483.961L484.366 9.4856H487.41V13.1828H491.021V16.1572H487.41V22.1894C487.41 22.8566 487.545 23.3199 487.815 23.5794C488.102 23.8203 488.587 23.9407 489.27 23.9407H490.94V26.9707H488.596Z" fill="#969FA4"/>
<path d="M495.842 11.0423C495.213 11.0423 494.692 10.8477 494.279 10.4586C493.884 10.0694 493.686 9.57824 493.686 8.98522C493.686 8.39219 493.884 7.91035 494.279 7.5397C494.692 7.15053 495.213 6.95593 495.842 6.95593C496.47 6.95593 496.982 7.15053 497.378 7.5397C497.791 7.91035 497.998 8.39219 497.998 8.98522C497.998 9.57824 497.791 10.0694 497.378 10.4586C496.982 10.8477 496.47 11.0423 495.842 11.0423ZM494.117 26.9707V13.1828H497.566V26.9707H494.117Z" fill="#969FA4"/>
<path d="M501.166 26.9707V13.1828H504.211L504.508 15.0453C504.939 14.3781 505.505 13.8499 506.205 13.4607C506.923 13.053 507.75 12.8492 508.684 12.8492C510.75 12.8492 512.214 13.6739 513.076 15.3232C513.561 14.5634 514.208 13.9611 515.016 13.5163C515.842 13.0716 516.741 12.8492 517.711 12.8492C519.453 12.8492 520.792 13.3866 521.726 14.4615C522.66 15.5363 523.127 17.1116 523.127 19.1872V26.9707H519.677V19.5207C519.677 18.3347 519.453 17.4267 519.004 16.7965C518.573 16.1664 517.9 15.8514 516.984 15.8514C516.049 15.8514 515.295 16.2035 514.72 16.9077C514.163 17.6119 513.885 18.5942 513.885 19.8543V26.9707H510.435V19.5207C510.435 18.3347 510.211 17.4267 509.761 16.7965C509.313 16.1664 508.621 15.8514 507.687 15.8514C506.771 15.8514 506.025 16.2035 505.451 16.9077C504.894 17.6119 504.615 18.5942 504.615 19.8543V26.9707H501.166Z" fill="#969FA4"/>
<path d="M532.895 27.3043C531.548 27.3043 530.354 27.0078 529.311 26.4147C528.27 25.8218 527.452 24.9878 526.86 23.9129C526.267 22.838 525.971 21.5963 525.971 20.1879C525.971 18.761 526.257 17.4915 526.833 16.3796C527.425 15.2676 528.233 14.4059 529.257 13.7943C530.3 13.1642 531.521 12.8492 532.922 12.8492C534.233 12.8492 535.392 13.1457 536.399 13.7388C537.404 14.3317 538.186 15.1472 538.742 16.185C539.318 17.2042 539.604 18.344 539.604 19.6042C539.604 19.808 539.596 20.0211 539.578 20.2435C539.578 20.466 539.569 20.6976 539.551 20.9385H529.392C529.464 22.0134 529.823 22.8566 530.47 23.4681C531.135 24.0797 531.934 24.3855 532.868 24.3855C533.569 24.3855 534.152 24.228 534.62 23.9129C535.105 23.5794 535.464 23.1531 535.698 22.6342H539.2C538.949 23.5052 538.527 24.3021 537.934 25.0249C537.359 25.7291 536.641 26.285 535.779 26.6928C534.934 27.1005 533.973 27.3043 532.895 27.3043ZM532.922 15.7402C532.078 15.7402 531.332 15.9904 530.686 16.4908C530.039 16.9726 529.626 17.7139 529.446 18.7146H536.102C536.048 17.8065 535.725 17.0838 535.132 16.5463C534.539 16.0089 533.802 15.7402 532.922 15.7402Z" fill="#969FA4"/>
<path d="M542.506 26.9707V13.1828H545.577L545.9 15.768C546.385 14.8785 547.042 14.1743 547.868 13.6553C548.712 13.1179 549.7 12.8492 550.832 12.8492V16.6019H549.862C549.107 16.6019 548.434 16.7224 547.841 16.9633C547.248 17.2042 546.781 17.6213 546.439 18.2142C546.116 18.8073 545.954 19.632 545.954 20.6883V26.9707H542.506Z" fill="#969FA4"/>
<path d="M433.899 9.33888L415.821 28.2307C415.704 28.3523 415.501 28.2673 415.503 28.0979L415.62 18.8205C415.621 18.7519 415.658 18.6893 415.718 18.6573L433.68 9.04296C433.866 8.94336 434.045 9.18581 433.899 9.33888Z" fill="#969FA4" fill-opacity="0.8"/>
<path d="M434.769 7.8269L434.53 8.16953L414 19.2756L406.505 14.3C406.33 14.1786 406.378 13.9009 406.59 13.8613L434.769 7.8269Z" fill="#969FA4"/>
<path fill-rule="evenodd" clip-rule="evenodd" d="M435.077 7.62102C435.16 7.74972 435.158 7.91716 435.07 8.04301L434.831 8.38564C434.798 8.43331 434.754 8.47247 434.703 8.49996L414.174 19.6061C414.054 19.6705 413.91 19.664 413.797 19.5889L406.301 14.6134C406.299 14.6119 406.297 14.6105 406.295 14.609C405.875 14.3176 405.954 13.6035 406.516 13.4941L434.691 7.46051C434.84 7.42864 434.993 7.49233 435.077 7.62102ZM406.971 14.1624L414.019 18.8406L432.95 8.59901L406.971 14.1624Z" fill="#969FA4"/>
<path fill-rule="evenodd" clip-rule="evenodd" d="M435.117 7.94901C435.177 7.77368 435.102 7.58027 434.939 7.49434C434.777 7.4084 434.577 7.45585 434.469 7.60587L434.28 7.86865L413.719 19.2069C413.577 19.2848 413.502 19.4462 413.532 19.6062L415.123 28.0316C415.154 28.1955 415.288 28.3189 415.452 28.3342C415.616 28.3495 415.771 28.2529 415.83 28.0976L418.272 21.7677L434.793 8.7142C434.849 8.66977 434.891 8.60983 434.914 8.54158L435.117 7.94901Z" fill="url(#paint0_linear_0_1)"/>
<path d="M434.768 7.82629L428.589 27.8507C428.541 27.9991 428.362 28.0651 428.23 27.9827L420.194 22.9468L418.488 21.7826L434.259 8.50412C434.455 8.33892 434.615 8.13434 434.73 7.90331L434.768 7.82629Z" fill="#969FA4"/>
<path fill-rule="evenodd" clip-rule="evenodd" d="M434.907 7.47899C435.085 7.55206 435.179 7.75178 435.121 7.93802L428.942 27.9624L428.941 27.9669C428.818 28.3485 428.369 28.5096 428.036 28.3016L420 23.2653C419.996 23.2627 419.992 23.2601 419.988 23.2575L418.282 22.0932C418.185 22.0273 418.125 21.9193 418.119 21.8014C418.113 21.6836 418.162 21.5699 418.252 21.4945L434.023 8.21606C434.18 8.08389 434.308 7.92024 434.4 7.73541L434.438 7.6584C434.524 7.48398 434.728 7.40591 434.907 7.47899ZM433.938 9.26161L419.104 21.7511L420.396 22.6321L428.286 27.5776L433.938 9.26161Z" fill="#969FA4"/>
<path d="M667.321 22.4057C667.5 22.4057 667.655 22.4749 667.785 22.6133L669.081 24.018C668.364 24.9056 667.48 25.5856 666.428 26.0578C665.385 26.5301 664.131 26.7663 662.664 26.7663C661.352 26.7663 660.171 26.5424 659.12 26.0945C658.076 25.6466 657.184 25.0237 656.443 24.2257C655.701 23.4277 655.131 22.4749 654.732 21.3674C654.341 20.2599 654.145 19.0507 654.145 17.7396C654.145 16.4123 654.365 15.199 654.805 14.0996C655.245 12.9922 655.864 12.0395 656.663 11.2414C657.461 10.4434 658.415 9.8245 659.523 9.38474C660.639 8.93694 661.87 8.71295 663.214 8.71295C664.526 8.71295 665.671 8.92466 666.648 9.34817C667.634 9.76347 668.478 10.3172 669.178 11.0094L668.078 12.5362C668.013 12.6339 667.928 12.7194 667.822 12.7927C667.724 12.866 667.585 12.9026 667.406 12.9026C667.219 12.9026 667.027 12.8294 666.832 12.6827C666.636 12.5362 666.388 12.3774 666.086 12.2064C665.785 12.0353 665.402 11.8766 664.937 11.73C664.481 11.5835 663.898 11.5102 663.19 11.5102C662.358 11.5102 661.592 11.6567 660.892 11.9498C660.199 12.2349 659.6 12.6461 659.095 13.1835C658.598 13.721 658.207 14.3765 657.922 15.1501C657.645 15.9156 657.506 16.7787 657.506 17.7396C657.506 18.7331 657.645 19.6167 657.922 20.3902C658.207 21.1638 658.59 21.8153 659.071 22.3445C659.551 22.8739 660.118 23.281 660.769 23.5661C661.421 23.843 662.122 23.9814 662.872 23.9814C663.32 23.9814 663.723 23.9569 664.082 23.908C664.448 23.8592 664.782 23.7818 665.084 23.676C665.394 23.5701 665.683 23.4358 665.952 23.2729C666.229 23.1019 666.502 22.8943 666.771 22.65C666.852 22.5767 666.938 22.5197 667.027 22.479C667.117 22.43 667.215 22.4057 667.321 22.4057Z" fill="#969FA4"/>
<path d="M680.738 26.5709H679.382C679.096 26.5709 678.872 26.5301 678.709 26.4487C678.547 26.3592 678.424 26.1841 678.343 25.9235L678.074 25.0318C677.756 25.3168 677.442 25.5693 677.133 25.7892C676.831 26.0009 676.518 26.18 676.192 26.3266C675.866 26.4732 675.519 26.5831 675.153 26.6564C674.786 26.7297 674.379 26.7663 673.93 26.7663C673.401 26.7663 672.912 26.6972 672.464 26.5587C672.016 26.4121 671.629 26.1963 671.303 25.9113C670.985 25.6263 670.736 25.2721 670.557 24.8486C670.378 24.4252 670.288 23.9325 670.288 23.3706C670.288 22.8984 670.41 22.4342 670.655 21.9782C670.907 21.514 671.323 21.0987 671.902 20.7322C672.48 20.3577 673.25 20.0483 674.212 19.804C675.173 19.5597 676.367 19.4212 677.793 19.3887V18.6557C677.793 17.817 677.613 17.1981 677.255 16.7992C676.905 16.392 676.391 16.1884 675.715 16.1884C675.226 16.1884 674.819 16.2454 674.493 16.3594C674.167 16.4734 673.882 16.6037 673.637 16.7503C673.401 16.8887 673.181 17.015 672.977 17.1289C672.773 17.2429 672.549 17.3 672.305 17.3C672.101 17.3 671.926 17.247 671.779 17.1412C671.633 17.0353 671.515 16.905 671.425 16.7503L670.875 15.7853C672.317 14.4661 674.057 13.8065 676.094 13.8065C676.827 13.8065 677.479 13.9287 678.049 14.173C678.628 14.4091 679.117 14.743 679.516 15.1746C679.915 15.5981 680.217 16.107 680.421 16.7014C680.632 17.2959 680.738 17.9473 680.738 18.6557V26.5709ZM674.872 24.6898C675.181 24.6898 675.466 24.6613 675.727 24.6043C675.988 24.5474 676.232 24.4619 676.46 24.3478C676.697 24.2338 676.921 24.0954 677.133 23.9325C677.353 23.7616 677.573 23.562 677.793 23.334V21.2208C676.913 21.2616 676.175 21.3389 675.581 21.453C674.994 21.5588 674.521 21.6973 674.163 21.8683C673.804 22.0392 673.548 22.2388 673.393 22.4667C673.246 22.6948 673.173 22.9431 673.173 23.2118C673.173 23.7412 673.328 24.1198 673.637 24.3478C673.955 24.5758 674.366 24.6898 674.872 24.6898Z" fill="#969FA4"/>
<path d="M683.218 26.5709V14.0386H684.99C685.3 14.0386 685.516 14.0956 685.638 14.2096C685.76 14.3236 685.842 14.519 685.882 14.7959L686.066 16.3106C686.514 15.537 687.039 14.9262 687.642 14.4783C688.245 14.0305 688.922 13.8065 689.671 13.8065C690.291 13.8065 690.804 13.9491 691.211 14.2341L690.82 16.4938C690.796 16.6404 690.743 16.7462 690.661 16.8114C690.58 16.8683 690.47 16.8969 690.331 16.8969C690.209 16.8969 690.042 16.8683 689.83 16.8114C689.618 16.7543 689.337 16.7259 688.987 16.7259C688.359 16.7259 687.822 16.9009 687.373 17.2511C686.925 17.5931 686.546 18.098 686.237 18.7657V26.5709H683.218Z" fill="#969FA4"/>
<path d="M701.532 26.5708C701.141 26.5708 700.884 26.3876 700.762 26.0212L700.518 24.8119C700.257 25.1051 699.984 25.3697 699.699 25.6059C699.413 25.8421 699.104 26.0456 698.769 26.2166C698.444 26.3876 698.09 26.5179 697.706 26.6075C697.331 26.7052 696.924 26.7541 696.484 26.7541C695.8 26.7541 695.172 26.6115 694.602 26.3266C694.031 26.0416 693.539 25.6304 693.123 25.0929C692.716 24.5473 692.398 23.8755 692.17 23.0774C691.95 22.2794 691.84 21.3674 691.84 20.3414C691.84 19.4131 691.966 18.5499 692.218 17.7519C692.471 16.9538 692.834 16.2617 693.306 15.6753C693.779 15.089 694.345 14.633 695.005 14.3073C695.665 13.9734 696.407 13.8065 697.23 13.8065C697.93 13.8065 698.529 13.9205 699.026 14.1486C699.524 14.3684 699.967 14.6656 700.358 15.0402V8.4198H703.378V26.5708H701.532ZM697.51 24.36C698.138 24.36 698.672 24.2297 699.112 23.9692C699.552 23.7085 699.967 23.338 700.358 22.8576V17.2388C700.016 16.8235 699.641 16.5304 699.234 16.3594C698.835 16.1884 698.403 16.1029 697.939 16.1029C697.482 16.1029 697.067 16.1884 696.691 16.3594C696.326 16.5304 696.012 16.7909 695.751 17.1411C695.498 17.4831 695.303 17.9229 695.164 18.4603C695.026 18.9896 694.956 19.6167 694.956 20.3414C694.956 21.0743 695.013 21.6972 695.127 22.2102C695.25 22.7151 695.421 23.1304 695.641 23.4561C695.861 23.7737 696.13 24.0058 696.447 24.1523C696.765 24.2908 697.12 24.36 697.51 24.36Z" fill="#969FA4"/>
<path d="M711.342 13.8431C712.132 13.8431 712.857 13.9694 713.517 14.2218C714.186 14.4742 714.76 14.8447 715.241 15.3333C715.722 15.8138 716.096 16.4082 716.365 17.1167C716.634 17.817 716.769 18.6191 716.769 19.523C716.769 19.751 716.757 19.9423 716.732 20.0971C716.716 20.2437 716.679 20.3618 716.622 20.4513C716.573 20.5328 716.503 20.5938 716.414 20.6345C716.324 20.6671 716.211 20.6834 716.072 20.6834H708.323C708.412 21.97 708.759 22.9146 709.361 23.5172C709.965 24.1198 710.763 24.4211 711.757 24.4211C712.247 24.4211 712.666 24.3641 713.017 24.25C713.375 24.1361 713.685 24.0099 713.945 23.8714C714.214 23.733 714.446 23.6068 714.642 23.4928C714.846 23.3787 715.041 23.3218 715.229 23.3218C715.351 23.3218 715.457 23.3462 715.547 23.3951C715.636 23.4439 715.714 23.5132 715.778 23.6027L716.659 24.702C716.324 25.0929 715.95 25.4227 715.534 25.6914C715.119 25.952 714.683 26.1637 714.227 26.3266C713.778 26.4813 713.318 26.5912 712.845 26.6564C712.381 26.7215 711.929 26.7541 711.488 26.7541C710.617 26.7541 709.806 26.6115 709.056 26.3266C708.307 26.0334 707.655 25.6059 707.1 25.0441C706.547 24.474 706.11 23.7737 705.793 22.9431C705.475 22.1044 705.316 21.1353 705.316 20.036C705.316 19.181 705.455 18.3789 705.732 17.6297C706.009 16.8724 706.404 16.2168 706.918 15.6631C707.439 15.1013 708.07 14.6575 708.812 14.3317C709.561 14.006 710.405 13.8431 711.342 13.8431ZM711.403 16.0051C710.523 16.0051 709.834 16.2535 709.337 16.7502C708.84 17.247 708.523 17.9513 708.384 18.8634H714.056C714.056 18.4725 714.003 18.1061 713.896 17.7641C713.79 17.4139 713.627 17.1086 713.408 16.848C713.188 16.5874 712.91 16.3838 712.576 16.2372C712.243 16.0825 711.851 16.0051 711.403 16.0051Z" fill="#969FA4"/>
<path d="M727.553 26.5708C727.162 26.5708 726.906 26.3876 726.783 26.0212L726.539 24.8119C726.278 25.1051 726.005 25.3697 725.72 25.6059C725.435 25.8421 725.125 26.0456 724.791 26.2166C724.465 26.3876 724.11 26.5179 723.728 26.6075C723.353 26.7052 722.945 26.7541 722.505 26.7541C721.821 26.7541 721.194 26.6115 720.623 26.3266C720.053 26.0416 719.56 25.6304 719.144 25.0929C718.737 24.5473 718.419 23.8755 718.191 23.0774C717.971 22.2794 717.861 21.3674 717.861 20.3414C717.861 19.4131 717.987 18.5499 718.239 17.7519C718.493 16.9538 718.855 16.2617 719.327 15.6753C719.8 15.089 720.366 14.633 721.027 14.3073C721.686 13.9734 722.428 13.8065 723.251 13.8065C723.952 13.8065 724.551 13.9205 725.048 14.1486C725.545 14.3684 725.989 14.6656 726.38 15.0402V8.4198H729.398V26.5708H727.553ZM723.532 24.36C724.159 24.36 724.694 24.2297 725.133 23.9692C725.573 23.7085 725.989 23.338 726.38 22.8576V17.2388C726.038 16.8235 725.663 16.5304 725.255 16.3594C724.856 16.1884 724.424 16.1029 723.96 16.1029C723.504 16.1029 723.088 16.1884 722.713 16.3594C722.346 16.5304 722.032 16.7909 721.772 17.1411C721.52 17.4831 721.324 17.9229 721.185 18.4603C721.047 18.9896 720.978 19.6167 720.978 20.3414C720.978 21.0743 721.034 21.6972 721.149 22.2102C721.271 22.7151 721.442 23.1304 721.662 23.4561C721.882 23.7737 722.151 24.0058 722.469 24.1523C722.787 24.2908 723.141 24.36 723.532 24.36Z" fill="#969FA4"/>
<path fill-rule="evenodd" clip-rule="evenodd" d="M620.076 6.8814C620.621 5.01781 622.574 3.94846 624.439 4.49294L636.19 7.92423C638.055 8.46872 639.125 10.4209 638.58 12.2844L633.318 30.2833C632.773 32.1469 630.82 33.2162 628.955 32.6717L617.204 29.2404C615.339 28.696 614.269 26.7438 614.814 24.8802L620.076 6.8814ZM623.68 7.08859C623.25 6.96294 622.799 7.20971 622.673 7.63978L617.411 25.6386C617.285 26.0686 617.532 26.5192 617.963 26.6448L629.714 30.076C630.144 30.2017 630.595 29.955 630.721 29.5249L635.983 11.5261C636.109 11.096 635.862 10.6455 635.431 10.5199L623.68 7.08859Z" fill="#969FA4"/>
<path fill-rule="evenodd" clip-rule="evenodd" d="M627.417 3.71673C627.962 1.85314 629.915 0.78378 631.78 1.32827L643.531 4.75956C645.396 5.30404 646.466 7.25619 645.921 9.11977L640.659 27.1185C640.115 28.9822 638.161 30.0515 636.296 29.5071L624.545 26.0757C622.68 25.5312 621.61 23.5791 622.155 21.7155L627.417 3.71673ZM631.021 3.92392C630.591 3.79827 630.14 4.04504 630.014 4.4751L624.752 22.4739C624.626 22.904 624.873 23.3544 625.304 23.4801L637.055 26.9114C637.486 27.037 637.936 26.7902 638.062 26.3602L643.324 8.36141C643.45 7.93135 643.203 7.48086 642.773 7.35521L631.021 3.92392Z" fill="#969FA4"/>
<defs>
<linearGradient id="paint0_linear_0_1" x1="428.357" y1="4.28244" x2="415.902" y2="31.4229" gradientUnits="userSpaceOnUse">
<stop offset="0.0001" stop-color="#ABB3B7"/>
<stop offset="1" stop-color="#BBD3DF"/>
</linearGradient>
<clipPath id="clip0_0_1">
<rect width="124" height="33" fill="white" transform="translate(0 1)"/>
</clipPath>
<clipPath id="clip1_0_1">
<rect width="159" height="27" fill="white" transform="translate(185 4)"/>
</clipPath>
</defs>
</svg>
